<svg width="129" height="46" viewBox="0 0 129 46" fill="none" xmlns="http://www.w3.org/2000/svg">
<path d="M91.4075 7.90496V0.912079H128.5V7.90496L109.954 24.323H98.0963L119.683 5.16859L120.595 7.90496H91.4075Z" fill="white"/>
<path d="M58.5714 18.2422V11.8575H76.8137C77.4217 11.8575 78.0298 11.8574 78.6379 11.5534C79.246 11.2494 79.246 10.9453 79.246 10.0332C79.246 9.1211 78.9419 8.81707 78.6379 8.51303C78.0298 8.20899 77.4217 8.20897 76.8137 8.20897H59.1795V24.323H50.0583V0.912079H75.2935C77.1177 0.912079 78.942 0.912097 80.4621 1.21614C81.9823 1.52017 83.5025 1.82421 84.7187 2.73633C85.9348 3.3444 86.8469 4.2565 87.455 5.47265C88.0631 6.6888 88.3672 8.20899 88.3672 10.0332C88.3672 11.8574 88.0631 13.3776 87.455 14.5938C86.8469 15.8099 85.9348 16.418 84.7187 17.0261C83.5025 17.6342 81.9823 17.9382 80.4621 17.9382C78.942 17.9382 77.1177 18.2422 75.2935 18.2422H58.5714Z" fill="white"/>
<path d="M27.8634 16.7221H35.4644C33.9442 17.0261 32.424 17.3302 30.5997 17.6342C28.7755 17.9382 26.9513 17.9383 24.519 17.9383C21.1746 17.9383 18.4382 17.6342 16.3099 17.3302C14.1817 17.0261 12.6615 16.4181 11.7494 15.506C10.8372 14.5938 10.2292 13.6817 10.2292 12.4656C10.2292 11.2494 10.5332 10.0333 11.4453 9.12114C12.3574 8.20903 13.8777 7.60098 15.7019 7.29694C17.5261 6.9929 20.2625 6.68883 23.3029 6.68883C26.0392 6.68883 28.1674 6.9929 29.6876 7.29694C31.2078 7.60098 32.1199 7.905 33.032 8.51307H43.9774C43.6734 6.99288 42.7613 5.77674 41.5451 4.86463C40.0249 3.34444 37.5926 2.12829 34.5522 1.21618C31.5118 0.304066 27.8634 0 23.3029 0C19.9584 0 16.918 0.304029 13.8777 0.608067C11.1413 0.912105 8.70903 1.82426 6.58076 2.73637C4.45249 3.64848 2.9323 4.8646 2.02019 6.68883C0.804038 8.20902 0.5 10.3373 0.5 12.7696C0.5 15.2019 1.10808 17.0261 2.02019 18.8503C2.9323 20.3705 4.45249 21.5867 6.58076 22.4988C8.40499 23.411 10.8373 24.019 13.5736 24.323C16.3099 24.6271 19.0463 24.9311 22.3907 24.9311C29.6876 24.9311 35.1603 23.715 37.8966 21.8907C37.5926 22.8028 37.5926 23.411 37.5926 24.019H44.8895V10.9454H27.5594V16.7221H27.8634Z" fill="white"/>
<path d="M1.488 32.4553C1.28 32.4553 1.104 32.3833 0.96 32.2393C0.816 32.0953 0.744 31.9193 0.744 31.7113C0.744 31.5033 0.816 31.3273 0.96 31.1833C1.104 31.0393 1.28 30.9673 1.488 30.9673C1.688 30.9673 1.856 31.0393 1.992 31.1833C2.136 31.3273 2.208 31.5033 2.208 31.7113C2.208 31.9193 2.136 32.0953 1.992 32.2393C1.856 32.3833 1.688 32.4553 1.488 32.4553ZM2.016 33.5233V40.0993H0.924V33.5233H2.016ZM12.6131 34.1593C12.3811 33.6713 12.0451 33.2953 11.6051 33.0313C11.1651 32.7593 10.6531 32.6233 10.0691 32.6233C9.48513 32.6233 8.95713 32.7593 8.48513 33.0313C8.02113 33.2953 7.65313 33.6793 7.38113 34.1833C7.11713 34.6793 6.98513 35.2553 6.98513 35.9113C6.98513 36.5673 7.11713 37.1433 7.38113 37.6393C7.65313 38.1353 8.02113 38.5193 8.48513 38.7913C8.95713 39.0553 9.48513 39.1873 10.0691 39.1873C10.8851 39.1873 11.5571 38.9433 12.0851 38.4553C12.6131 37.9673 12.9211 37.3073 13.0091 36.4753H9.67313V35.5873H14.1731V36.4273C14.1091 37.1153 13.8931 37.7473 13.5251 38.3233C13.1571 38.8913 12.6731 39.3433 12.0731 39.6793C11.4731 40.0073 10.8051 40.1713 10.0691 40.1713C9.29313 40.1713 8.58513 39.9913 7.94513 39.6313C7.30513 39.2633 6.79713 38.7553 6.42113 38.1073C6.05313 37.4593 5.86913 36.7273 5.86913 35.9113C5.86913 35.0953 6.05313 34.3633 6.42113 33.7153C6.79713 33.0593 7.30513 32.5513 7.94513 32.1913C8.58513 31.8233 9.29313 31.6393 10.0691 31.6393C10.9571 31.6393 11.7411 31.8593 12.4211 32.2993C13.1091 32.7393 13.6091 33.3593 13.9211 34.1593H12.6131ZM17.609 36.7873C17.609 36.1153 17.745 35.5273 18.017 35.0233C18.289 34.5113 18.661 34.1153 19.133 33.8353C19.613 33.5553 20.145 33.4153 20.729 33.4153C21.305 33.4153 21.805 33.5393 22.229 33.7873C22.653 34.0353 22.969 34.3473 23.177 34.7233V33.5233H24.281V40.0993H23.177V38.8753C22.961 39.2593 22.637 39.5793 22.205 39.8353C21.781 40.0833 21.285 40.2073 20.717 40.2073C20.133 40.2073 19.605 40.0633 19.133 39.7753C18.661 39.4873 18.289 39.0833 18.017 38.5633C17.745 38.0433 17.609 37.4513 17.609 36.7873ZM23.177 36.7993C23.177 36.3033 23.077 35.8713 22.877 35.5033C22.677 35.1353 22.405 34.8553 22.061 34.6633C21.725 34.4633 21.353 34.3633 20.945 34.3633C20.537 34.3633 20.165 34.4593 19.829 34.6513C19.493 34.8433 19.225 35.1233 19.025 35.4913C18.825 35.8593 18.725 36.2913 18.725 36.7873C18.725 37.2913 18.825 37.7313 19.025 38.1073C19.225 38.4753 19.493 38.7593 19.829 38.9593C20.165 39.1513 20.537 39.2473 20.945 39.2473C21.353 39.2473 21.725 39.1513 22.061 38.9593C22.405 38.7593 22.677 38.4753 22.877 38.1073C23.077 37.7313 23.177 37.2953 23.177 36.7993ZM36.4343 33.4033C36.9463 33.4033 37.4023 33.5113 37.8023 33.7273C38.2023 33.9353 38.5183 34.2513 38.7503 34.6753C38.9823 35.0993 39.0983 35.6153 39.0983 36.2233V40.0993H38.0183V36.3793C38.0183 35.7233 37.8543 35.2233 37.5263 34.8793C37.2063 34.5273 36.7703 34.3513 36.2183 34.3513C35.6503 34.3513 35.1983 34.5353 34.8623 34.9033C34.5263 35.2633 34.3583 35.7873 34.3583 36.4753V40.0993H33.2783V36.3793C33.2783 35.7233 33.1143 35.2233 32.7863 34.8793C32.4663 34.5273 32.0303 34.3513 31.4783 34.3513C30.9103 34.3513 30.4583 34.5353 30.1223 34.9033C29.7863 35.2633 29.6183 35.7873 29.6183 36.4753V40.0993H28.5263V33.5233H29.6183V34.4713C29.8343 34.1273 30.1223 33.8633 30.4823 33.6793C30.8503 33.4953 31.2543 33.4033 31.6943 33.4033C32.2463 33.4033 32.7343 33.5273 33.1583 33.7753C33.5823 34.0233 33.8983 34.3873 34.1063 34.8673C34.2903 34.4033 34.5943 34.0433 35.0183 33.7873C35.4423 33.5313 35.9143 33.4033 36.4343 33.4033ZM43.8536 32.4553C43.6456 32.4553 43.4696 32.3833 43.3256 32.2393C43.1816 32.0953 43.1096 31.9193 43.1096 31.7113C43.1096 31.5033 43.1816 31.3273 43.3256 31.1833C43.4696 31.0393 43.6456 30.9673 43.8536 30.9673C44.0536 30.9673 44.2216 31.0393 44.3576 31.1833C44.5016 31.3273 44.5736 31.5033 44.5736 31.7113C44.5736 31.9193 44.5016 32.0953 44.3576 32.2393C44.2216 32.3833 44.0536 32.4553 43.8536 32.4553ZM44.3816 33.5233V40.0993H43.2896V33.5233H44.3816ZM51.8468 33.4033C52.6468 33.4033 53.2948 33.6473 53.7908 34.1353C54.2868 34.6153 54.5348 35.3113 54.5348 36.2233V40.0993H53.4548V36.3793C53.4548 35.7233 53.2908 35.2233 52.9628 34.8793C52.6348 34.5273 52.1868 34.3513 51.6188 34.3513C51.0428 34.3513 50.5828 34.5313 50.2388 34.8913C49.9028 35.2513 49.7348 35.7753 49.7348 36.4633V40.0993H48.6428V33.5233H49.7348V34.4593C49.9508 34.1233 50.2428 33.8633 50.6108 33.6793C50.9868 33.4953 51.3988 33.4033 51.8468 33.4033ZM61.4305 33.4153C61.9985 33.4153 62.4945 33.5393 62.9185 33.7873C63.3505 34.0353 63.6705 34.3473 63.8785 34.7233V33.5233H64.9825V40.2433C64.9825 40.8433 64.8545 41.3753 64.5985 41.8393C64.3425 42.3113 63.9745 42.6793 63.4945 42.9433C63.0225 43.2073 62.4705 43.3393 61.8385 43.3393C60.9745 43.3393 60.2545 43.1353 59.6785 42.7273C59.1025 42.3193 58.7625 41.7633 58.6585 41.0593H59.7385C59.8585 41.4593 60.1065 41.7793 60.4825 42.0193C60.8585 42.2673 61.3105 42.3913 61.8385 42.3913C62.4385 42.3913 62.9265 42.2033 63.3025 41.8273C63.6865 41.4513 63.8785 40.9233 63.8785 40.2433V38.8633C63.6625 39.2473 63.3425 39.5673 62.9185 39.8233C62.4945 40.0793 61.9985 40.2073 61.4305 40.2073C60.8465 40.2073 60.3145 40.0633 59.8345 39.7753C59.3625 39.4873 58.9905 39.0833 58.7185 38.5633C58.4465 38.0433 58.3105 37.4513 58.3105 36.7873C58.3105 36.1153 58.4465 35.5273 58.7185 35.0233C58.9905 34.5113 59.3625 34.1153 59.8345 33.8353C60.3145 33.5553 60.8465 33.4153 61.4305 33.4153ZM63.8785 36.7993C63.8785 36.3033 63.7785 35.8713 63.5785 35.5033C63.3785 35.1353 63.1065 34.8553 62.7625 34.6633C62.4265 34.4633 62.0545 34.3633 61.6465 34.3633C61.2385 34.3633 60.8665 34.4593 60.5305 34.6513C60.1945 34.8433 59.9265 35.1233 59.7265 35.4913C59.5265 35.8593 59.4265 36.2913 59.4265 36.7873C59.4265 37.2913 59.5265 37.7313 59.7265 38.1073C59.9265 38.4753 60.1945 38.7593 60.5305 38.9593C60.8665 39.1513 61.2385 39.2473 61.6465 39.2473C62.0545 39.2473 62.4265 39.1513 62.7625 38.9593C63.1065 38.7593 63.3785 38.4753 63.5785 38.1073C63.7785 37.7313 63.8785 37.2953 63.8785 36.7993ZM81.2471 40.0993L80.1551 38.9953C79.7471 39.4193 79.3111 39.7353 78.8471 39.9433C78.3831 40.1433 77.8591 40.2433 77.2751 40.2433C76.6991 40.2433 76.1871 40.1393 75.7391 39.9313C75.2991 39.7233 74.9551 39.4273 74.7071 39.0433C74.4671 38.6593 74.3471 38.2113 74.3471 37.6993C74.3471 37.1153 74.5111 36.6033 74.8391 36.1633C75.1751 35.7153 75.6671 35.3633 76.3151 35.1073C76.0591 34.8033 75.8751 34.5233 75.7631 34.2673C75.6511 34.0113 75.5951 33.7313 75.5951 33.4273C75.5951 33.0753 75.6831 32.7593 75.8591 32.4793C76.0431 32.1913 76.3031 31.9673 76.6391 31.8073C76.9751 31.6473 77.3631 31.5673 77.8031 31.5673C78.2351 31.5673 78.6111 31.6513 78.9311 31.8193C79.2511 31.9873 79.4911 32.2233 79.6511 32.5273C79.8111 32.8233 79.8831 33.1553 79.8671 33.5233H78.7751C78.7831 33.1953 78.6911 32.9393 78.4991 32.7553C78.3071 32.5633 78.0591 32.4673 77.7551 32.4673C77.4351 32.4673 77.1751 32.5593 76.9751 32.7433C76.7831 32.9193 76.6871 33.1473 76.6871 33.4273C76.6871 33.6673 76.7511 33.8993 76.8791 34.1233C77.0151 34.3473 77.2391 34.6233 77.5511 34.9513L80.0471 37.4593L80.2631 37.1233L81.0791 35.7553H82.2551L81.2711 37.4593C81.1351 37.6993 80.9751 37.9513 80.7911 38.2153L82.6751 40.0993H81.2471ZM77.2751 39.3073C77.7071 39.3073 78.0951 39.2233 78.4391 39.0553C78.7911 38.8873 79.1231 38.6273 79.4351 38.2753L76.9751 35.8033C75.9511 36.1953 75.4391 36.8153 75.4391 37.6633C75.4391 38.1353 75.6071 38.5273 75.9431 38.8393C76.2871 39.1513 76.7311 39.3073 77.2751 39.3073ZM94.3494 40.1833C93.7974 40.1833 93.3014 40.0873 92.8614 39.8953C92.4294 39.6953 92.0894 39.4233 91.8414 39.0793C91.5934 38.7273 91.4654 38.3233 91.4574 37.8673H92.6214C92.6614 38.2593 92.8214 38.5913 93.1014 38.8633C93.3894 39.1273 93.8054 39.2593 94.3494 39.2593C94.8694 39.2593 95.2774 39.1313 95.5734 38.8753C95.8774 38.6113 96.0294 38.2753 96.0294 37.8673C96.0294 37.5473 95.9414 37.2873 95.7654 37.0873C95.5894 36.8873 95.3694 36.7353 95.1054 36.6313C94.8414 36.5273 94.4854 36.4153 94.0374 36.2953C93.4854 36.1513 93.0414 36.0073 92.7054 35.8633C92.3774 35.7193 92.0934 35.4953 91.8534 35.1913C91.6214 34.8793 91.5054 34.4633 91.5054 33.9433C91.5054 33.4873 91.6214 33.0833 91.8534 32.7313C92.0854 32.3793 92.4094 32.1073 92.8254 31.9153C93.2494 31.7233 93.7334 31.6273 94.2774 31.6273C95.0614 31.6273 95.7014 31.8233 96.1974 32.2153C96.7014 32.6073 96.9854 33.1273 97.0494 33.7753H95.8494C95.8094 33.4553 95.6414 33.1753 95.3454 32.9353C95.0494 32.6873 94.6574 32.5633 94.1694 32.5633C93.7134 32.5633 93.3414 32.6833 93.0534 32.9233C92.7654 33.1553 92.6214 33.4833 92.6214 33.9073C92.6214 34.2113 92.7054 34.4593 92.8734 34.6513C93.0494 34.8433 93.2614 34.9913 93.5094 35.0953C93.7654 35.1913 94.1214 35.3033 94.5774 35.4313C95.1294 35.5833 95.5734 35.7353 95.9094 35.8873C96.2454 36.0313 96.5334 36.2593 96.7734 36.5713C97.0134 36.8753 97.1334 37.2913 97.1334 37.8193C97.1334 38.2273 97.0254 38.6113 96.8094 38.9713C96.5934 39.3313 96.2734 39.6233 95.8494 39.8473C95.4254 40.0713 94.9254 40.1833 94.3494 40.1833ZM100.732 36.7873C100.732 36.1153 100.868 35.5273 101.14 35.0233C101.412 34.5113 101.784 34.1153 102.256 33.8353C102.736 33.5553 103.268 33.4153 103.852 33.4153C104.428 33.4153 104.928 33.5393 105.352 33.7873C105.776 34.0353 106.092 34.3473 106.3 34.7233V33.5233H107.404V40.0993H106.3V38.8753C106.084 39.2593 105.76 39.5793 105.328 39.8353C104.904 40.0833 104.408 40.2073 103.84 40.2073C103.256 40.2073 102.728 40.0633 102.256 39.7753C101.784 39.4873 101.412 39.0833 101.14 38.5633C100.868 38.0433 100.732 37.4513 100.732 36.7873ZM106.3 36.7993C106.3 36.3033 106.2 35.8713 106 35.5033C105.8 35.1353 105.528 34.8553 105.184 34.6633C104.848 34.4633 104.476 34.3633 104.068 34.3633C103.66 34.3633 103.288 34.4593 102.952 34.6513C102.616 34.8433 102.348 35.1233 102.148 35.4913C101.948 35.8593 101.848 36.2913 101.848 36.7873C101.848 37.2913 101.948 37.7313 102.148 38.1073C102.348 38.4753 102.616 38.7593 102.952 38.9593C103.288 39.1513 103.66 39.2473 104.068 39.2473C104.476 39.2473 104.848 39.1513 105.184 38.9593C105.528 38.7593 105.8 38.4753 106 38.1073C106.2 37.7313 106.3 37.2953 106.3 36.7993ZM111.242 36.7873C111.242 36.1153 111.378 35.5273 111.65 35.0233C111.922 34.5113 112.294 34.1153 112.766 33.8353C113.246 33.5553 113.778 33.4153 114.362 33.4153C114.938 33.4153 115.438 33.5393 115.862 33.7873C116.286 34.0353 116.602 34.3473 116.81 34.7233V33.5233H117.914V40.0993H116.81V38.8753C116.594 39.2593 116.27 39.5793 115.838 39.8353C115.414 40.0833 114.918 40.2073 114.35 40.2073C113.766 40.2073 113.238 40.0633 112.766 39.7753C112.294 39.4873 111.922 39.0833 111.65 38.5633C111.378 38.0433 111.242 37.4513 111.242 36.7873ZM116.81 36.7993C116.81 36.3033 116.71 35.8713 116.51 35.5033C116.31 35.1353 116.038 34.8553 115.694 34.6633C115.358 34.4633 114.986 34.3633 114.578 34.3633C114.17 34.3633 113.798 34.4593 113.462 34.6513C113.126 34.8433 112.858 35.1233 112.658 35.4913C112.458 35.8593 112.358 36.2913 112.358 36.7873C112.358 37.2913 112.458 37.7313 112.658 38.1073C112.858 38.4753 113.126 38.7593 113.462 38.9593C113.798 39.1513 114.17 39.2473 114.578 39.2473C114.986 39.2473 115.358 39.1513 115.694 38.9593C116.038 38.7593 116.31 38.4753 116.51 38.1073C116.71 37.7313 116.81 37.2953 116.81 36.7993ZM124.811 40.1833C124.259 40.1833 123.763 40.0873 123.323 39.8953C122.891 39.6953 122.551 39.4233 122.303 39.0793C122.055 38.7273 121.927 38.3233 121.919 37.8673H123.083C123.123 38.2593 123.283 38.5913 123.563 38.8633C123.851 39.1273 124.267 39.2593 124.811 39.2593C125.331 39.2593 125.739 39.1313 126.035 38.8753C126.339 38.6113 126.491 38.2753 126.491 37.8673C126.491 37.5473 126.403 37.2873 126.227 37.0873C126.051 36.8873 125.831 36.7353 125.567 36.6313C125.303 36.5273 124.947 36.4153 124.499 36.2953C123.947 36.1513 123.503 36.0073 123.167 35.8633C122.839 35.7193 122.555 35.4953 122.315 35.1913C122.083 34.8793 121.967 34.4633 121.967 33.9433C121.967 33.4873 122.083 33.0833 122.315 32.7313C122.547 32.3793 122.871 32.1073 123.287 31.9153C123.711 31.7233 124.195 31.6273 124.739 31.6273C125.523 31.6273 126.163 31.8233 126.659 32.2153C127.163 32.6073 127.447 33.1273 127.511 33.7753H126.311C126.271 33.4553 126.103 33.1753 125.807 32.9353C125.511 32.6873 125.119 32.5633 124.631 32.5633C124.175 32.5633 123.803 32.6833 123.515 32.9233C123.227 33.1553 123.083 33.4833 123.083 33.9073C123.083 34.2113 123.167 34.4593 123.335 34.6513C123.511 34.8433 123.723 34.9913 123.971 35.0953C124.227 35.1913 124.583 35.3033 125.039 35.4313C125.591 35.5833 126.035 35.7353 126.371 35.8873C126.707 36.0313 126.995 36.2593 127.235 36.5713C127.475 36.8753 127.595 37.2913 127.595 37.8193C127.595 38.2273 127.487 38.6113 127.271 38.9713C127.055 39.3313 126.735 39.6233 126.311 39.8473C125.887 40.0713 125.387 40.1833 124.811 40.1833Z" fill="white"/>
</svg>
